<svg width="156" height="161" viewBox="0 0 156 161" fill="none" xmlns="http://www.w3.org/2000/svg">
<path d="M52.1782 124.964C52.1782 125.593 51.4548 126.096 50.5427 126.096C49.5048 126.19 48.7815 125.687 48.7815 124.964C48.7815 124.335 49.5048 123.832 50.4169 123.832C51.3605 123.737 52.1782 124.24 52.1782 124.964ZM42.3968 123.549C42.1766 124.178 42.8056 124.901 43.7492 125.089C44.5669 125.404 45.5105 125.089 45.6992 124.461C45.8879 123.832 45.2903 123.108 44.3468 122.825C43.529 122.605 42.6169 122.92 42.3968 123.549ZM56.2984 123.014C55.3863 123.234 54.7573 123.832 54.8516 124.555C54.946 125.184 55.7637 125.593 56.7073 125.372C57.6194 125.152 58.2484 124.555 58.154 123.926C58.0597 123.329 57.2105 122.92 56.2984 123.014ZM76.9935 2.51562C33.3702 2.51562 0 35.6275 0 79.2422C0 114.115 21.9532 143.957 53.3105 154.459C57.3363 155.183 58.7516 152.698 58.7516 150.655C58.7516 148.705 58.6573 137.951 58.6573 131.347C58.6573 131.347 36.6411 136.064 32.0177 121.976C32.0177 121.976 28.4323 112.826 23.2742 110.467C23.2742 110.467 16.0718 105.53 23.7774 105.625C23.7774 105.625 31.6089 106.254 35.9177 113.738C42.8056 125.876 54.3484 122.385 58.846 120.31C59.5694 115.279 61.6137 111.788 63.8782 109.713C46.2968 107.763 28.5581 105.216 28.5581 74.9656C28.5581 66.3182 30.9484 61.9787 35.9806 56.4443C35.1629 54.4004 32.4895 45.973 36.7984 35.093C43.3718 33.049 58.5 43.5832 58.5 43.5832C64.7903 41.8223 71.5524 40.9104 78.2516 40.9104C84.9508 40.9104 91.7129 41.8223 98.0032 43.5832C98.0032 43.5832 113.131 33.0176 119.705 35.093C124.014 46.0045 121.34 54.4004 120.523 56.4443C125.555 62.0102 128.637 66.3496 128.637 74.9656C128.637 105.31 110.112 107.732 92.5306 109.713C95.4242 112.197 97.8774 116.914 97.8774 124.303C97.8774 134.9 97.7831 148.013 97.7831 150.592C97.7831 152.636 99.2298 155.12 103.224 154.396C134.676 143.957 156 114.115 156 79.2422C156 35.6275 120.617 2.51562 76.9935 2.51562ZM30.571 110.971C30.1621 111.285 30.2565 112.008 30.7911 112.606C31.2944 113.109 32.0177 113.329 32.4266 112.92C32.8355 112.606 32.7411 111.882 32.2065 111.285C31.7032 110.782 30.9798 110.562 30.571 110.971ZM27.1742 108.423C26.954 108.832 27.2685 109.335 27.8976 109.65C28.4008 109.964 29.0298 109.87 29.25 109.43C29.4702 109.021 29.1556 108.518 28.5266 108.203C27.8976 108.015 27.3944 108.109 27.1742 108.423ZM37.3645 119.618C36.8613 120.027 37.05 120.97 37.7734 121.568C38.4968 122.291 39.4089 122.385 39.8177 121.882C40.2266 121.473 40.0379 120.53 39.4089 119.932C38.7169 119.209 37.7734 119.115 37.3645 119.618ZM33.779 114.996C33.2758 115.31 33.2758 116.128 33.779 116.851C34.2823 117.574 35.1315 117.888 35.5403 117.574C36.0435 117.165 36.0435 116.348 35.5403 115.624C35.1 114.901 34.2823 114.587 33.779 114.996Z" fill="white"/>
</svg>
